# xmcd
#
# Track frame offsets: 
#        150
#        10609
#        21774
#        32497
#        46302
#        56754
#        68509
#        80133
#        92557
#        102559
#        113424
#        124199
#
# Disc length: 1808 seconds
#
# Revision: 0
# Processed by: cddbd v1.5PL3 Copyright (c) Steve Scherf et al.
# Submitted via: ExactAudioCopy v0.95a5
#
DISCID=8e070e0c
DTITLE=Patsy Cline - Patsy Cline Collector's Edition (disk 2)
DYEAR=2004
DGENRE=Country
TTITLE0=Pick Me Up (On Your Way Down)
TTITLE1=A Stranger in My Arms
TTITLE2=Honky Tonk Merry-Go Round
TTITLE3=A Church, A Courtroom and Then Goodbye
TTITLE4=Three Cigarettes in an Ashtray
TTITLE5=Never No More
TTITLE6=I've Loved and Lost Again
TTITLE7=A Poor Man's Roses (Or a Rich Man's Gold)
TTITLE8=Turn the Cards Slowly
TTITLE9=I Cried All the Way to the Altar
TTITLE10=Stop, Look and Listen
TTITLE11=The Heart You Break May Be Your Own
EXTD=
EXTT0=
EXTT1=
EXTT2=
EXTT3=
EXTT4=
EXTT5=
EXTT6=
EXTT7=
EXTT8=
EXTT9=
EXTT10=
EXTT11=
PLAYORDER=
